<svg viewBox="0 0 900 540" xmlns="http://www.w3.org/2000/svg" style="width:100%;height:auto;display:block"><rect x="0" y="0" width="900" height="540" fill="#f6f7f9"/><text x="40" y="42" fill="#1b2430" font-family="IBM Plex Mono,monospace" font-size="19" text-anchor="start">DISPLAY REAR - 5 standoffs, &#216;8 base, M3 x 5 deep</text><text x="40" y="66" fill="#6b7a8c" font-family="IBM Plex Mono,monospace" font-size="13" text-anchor="start">every figure is measured to an edge, as given</text><rect x="100" y="165" width="625.25" height="256.25" rx="4" fill="#e3e8ef" stroke="#1b2430" stroke-width="1.8"/><circle cx="130.75" cy="181.9125" r="6" fill="#fff" stroke="#1b2430" stroke-width="1.8"/><line x1="121.75" y1="181.9125" x2="139.75" y2="181.9125" stroke="#6b7a8c" stroke-width="0.8"/><line x1="130.75" y1="172.9125" x2="130.75" y2="190.9125" stroke="#6b7a8c" stroke-width="0.8"/><circle cx="700.65" cy="181.9125" r="6" fill="#fff" stroke="#1b2430" stroke-width="1.8"/><line x1="691.65" y1="181.9125" x2="709.65" y2="181.9125" stroke="#6b7a8c" stroke-width="0.8"/><line x1="700.65" y1="172.9125" x2="700.65" y2="190.9125" stroke="#6b7a8c" stroke-width="0.8"/><circle cx="162.52499999999998" cy="394.6" r="6" fill="#fff" stroke="#1b2430" stroke-width="1.8"/><line x1="153.52499999999998" y1="394.6" x2="171.52499999999998" y2="394.6" stroke="#6b7a8c" stroke-width="0.8"/><line x1="162.52499999999998" y1="385.6" x2="162.52499999999998" y2="403.6" stroke="#6b7a8c" stroke-width="0.8"/><circle cx="670.925" cy="394.6" r="6" fill="#fff" stroke="#1b2430" stroke-width="1.8"/><line x1="661.925" y1="394.6" x2="679.925" y2="394.6" stroke="#6b7a8c" stroke-width="0.8"/><line x1="670.925" y1="385.6" x2="670.925" y2="403.6" stroke="#6b7a8c" stroke-width="0.8"/><circle cx="452.6" cy="357.7" r="6" fill="#fff" stroke="#1b2430" stroke-width="1.8"/><line x1="443.6" y1="357.7" x2="461.6" y2="357.7" stroke="#6b7a8c" stroke-width="0.8"/><line x1="452.6" y1="348.7" x2="452.6" y2="366.7" stroke="#6b7a8c" stroke-width="0.8"/><line x1="100" y1="137" x2="130.75" y2="137" stroke="#c2410c" stroke-width="1.4"/><line x1="100" y1="132" x2="100" y2="142" stroke="#c2410c" stroke-width="1.4"/><line x1="130.75" y1="132" x2="130.75" y2="142" stroke="#c2410c" stroke-width="1.4"/><text x="115.375" y="129" fill="#c2410c" font-family="IBM Plex Mono,monospace" font-size="13" text-anchor="middle">15.0</text><line x1="700.65" y1="137" x2="725.25" y2="137" stroke="#c2410c" stroke-width="1.4"/><line x1="700.65" y1="132" x2="700.65" y2="142" stroke="#c2410c" stroke-width="1.4"/><line x1="725.25" y1="132" x2="725.25" y2="142" stroke="#c2410c" stroke-width="1.4"/><text x="712.95" y="129" fill="#c2410c" font-family="IBM Plex Mono,monospace" font-size="13" text-anchor="middle">12.0</text><line x1="100.75" y1="165" x2="100.75" y2="181.9125" stroke="#c2410c" stroke-width="1.4"/><line x1="95.75" y1="165" x2="105.75" y2="165" stroke="#c2410c" stroke-width="1.4"/><line x1="95.75" y1="181.9125" x2="105.75" y2="181.9125" stroke="#c2410c" stroke-width="1.4"/><text x="100.75" y="173.45625" transform="rotate(-90 100.75 173.45625)" fill="#c2410c" font-family="IBM Plex Mono,monospace" font-size="12" text-anchor="middle" dy="-7">8.25</text><line x1="100" y1="455.25" x2="162.52499999999998" y2="455.25" stroke="#c2410c" stroke-width="1.4"/><line x1="100" y1="450.25" x2="100" y2="460.25" stroke="#c2410c" stroke-width="1.4"/><line x1="162.52499999999998" y1="450.25" x2="162.52499999999998" y2="460.25" stroke="#c2410c" stroke-width="1.4"/><text x="131.2625" y="447.25" fill="#c2410c" font-family="IBM Plex Mono,monospace" font-size="13" text-anchor="middle">30.5</text><line x1="670.925" y1="455.25" x2="725.25" y2="455.25" stroke="#c2410c" stroke-width="1.4"/><line x1="670.925" y1="450.25" x2="670.925" y2="460.25" stroke="#c2410c" stroke-width="1.4"/><line x1="725.25" y1="450.25" x2="725.25" y2="460.25" stroke="#c2410c" stroke-width="1.4"/><text x="698.0875" y="447.25" fill="#c2410c" font-family="IBM Plex Mono,monospace" font-size="13" text-anchor="middle">26.5</text><line x1="452.6" y1="491.25" x2="725.25" y2="491.25" stroke="#c2410c" stroke-width="1.4"/><line x1="452.6" y1="486.25" x2="452.6" y2="496.25" stroke="#c2410c" stroke-width="1.4"/><line x1="725.25" y1="486.25" x2="725.25" y2="496.25" stroke="#c2410c" stroke-width="1.4"/><text x="588.925" y="483.25" fill="#c2410c" font-family="IBM Plex Mono,monospace" font-size="13" text-anchor="middle">133.0</text><line x1="132.52499999999998" y1="394.6" x2="132.52499999999998" y2="421.25" stroke="#c2410c" stroke-width="1.4"/><line x1="127.52499999999998" y1="394.6" x2="137.52499999999998" y2="394.6" stroke="#c2410c" stroke-width="1.4"/><line x1="127.52499999999998" y1="421.25" x2="137.52499999999998" y2="421.25" stroke="#c2410c" stroke-width="1.4"/><text x="132.52499999999998" y="407.925" transform="rotate(-90 132.52499999999998 407.925)" fill="#c2410c" font-family="IBM Plex Mono,monospace" font-size="12" text-anchor="middle" dy="-7">13.0</text><line x1="422.6" y1="357.7" x2="422.6" y2="421.25" stroke="#c2410c" stroke-width="1.4"/><line x1="417.6" y1="357.7" x2="427.6" y2="357.7" stroke="#c2410c" stroke-width="1.4"/><line x1="417.6" y1="421.25" x2="427.6" y2="421.25" stroke="#c2410c" stroke-width="1.4"/><text x="422.6" y="389.475" transform="rotate(-90 422.6 389.475)" fill="#c2410c" font-family="IBM Plex Mono,monospace" font-size="12" text-anchor="middle" dy="-7">31.0</text><line x1="100" y1="101" x2="725.25" y2="101" stroke="#c2410c" stroke-width="1.4"/><line x1="100" y1="96" x2="100" y2="106" stroke="#c2410c" stroke-width="1.4"/><line x1="725.25" y1="96" x2="725.25" y2="106" stroke="#c2410c" stroke-width="1.4"/><text x="412.625" y="93" fill="#c2410c" font-family="IBM Plex Mono,monospace" font-size="15" text-anchor="middle">305 ASSUMED</text><line x1="44" y1="165" x2="44" y2="421.25" stroke="#c2410c" stroke-width="1.4"/><line x1="39" y1="165" x2="49" y2="165" stroke="#c2410c" stroke-width="1.4"/><line x1="39" y1="421.25" x2="49" y2="421.25" stroke="#c2410c" stroke-width="1.4"/><text x="44" y="293.125" transform="rotate(-90 44 293.125)" fill="#c2410c" font-family="IBM Plex Mono,monospace" font-size="15" text-anchor="middle" dy="-7">125 ASSUMED</text><text x="100" y="529.25" fill="#1b2430" font-family="IBM Plex Mono,monospace" font-size="14" text-anchor="start">&#9888; NO top-centre standoff - 5 total, not 6.</text><text x="100" y="551.25" fill="#c2410c" font-family="IBM Plex Mono,monospace" font-size="13" text-anchor="start">&#9888; module outline is still unmeasured. Every hole above is fixed to an</text><text x="100" y="570.25" fill="#c2410c" font-family="IBM Plex Mono,monospace" font-size="13" text-anchor="start">   edge, so the pattern is exact the moment the outline is known.</text></svg>